<?xml version="1.0" encoding="utf-8"?>
<!-- Generator: Adobe Illustrator 16.0.0, SVG Export Plug-In . SVG Version: 6.00 Build 0)  -->
<!DOCTYPE svg PUBLIC "-//W3C//DTD SVG 1.1//EN" "http://www.w3.org/Graphics/SVG/1.1/DTD/svg11.dtd">
<svg version="1.1" id="Warstwa_1" xmlns="http://www.w3.org/2000/svg" xmlns:xlink="http://www.w3.org/1999/xlink" x="0px" y="0px"
	 width="155.91px" height="166.93px" viewBox="0 0 155.91 166.93" enable-background="new 0 0 155.91 166.93" xml:space="preserve">
<g>
	<g>
		<g>
			<g>
				<path fill="#FA7D00" d="M18.138,58.799h0.061l0.432,0.006c2.727,0.036,4.918,2.282,4.884,5.005l-0.559,43.166
					c-0.036,2.696-2.252,4.891-4.941,4.891h-0.062l-0.437-0.007c-2.722-0.034-4.909-2.285-4.875-5.016L13.2,63.677
					C13.234,60.988,15.45,58.799,18.138,58.799 M18.138,53.825c-5.398,0-9.841,4.386-9.912,9.787l-0.559,43.168
					c-0.069,5.469,4.327,9.982,9.785,10.054l0.434,0.006c0.042,0.001,0.086,0.001,0.129,0.001c5.408,0,9.843-4.388,9.915-9.799
					l0.559-43.167c0.068-5.446-4.338-9.973-9.793-10.043l-0.429-0.006C18.224,53.826,18.18,53.825,18.138,53.825L18.138,53.825z"/>
			</g>
			<g>
				<path fill="#FA7D00" d="M38.253,60.639l81.901,1.062l-0.818,63.191c-0.029,2.243-1.882,4.067-4.131,4.067h-0.055l-9.742-0.127
					c-0.021,0-0.043,0-0.064,0c-1.296,0-2.541,0.506-3.472,1.411c-0.944,0.921-1.485,2.179-1.502,3.498l-0.302,23.321
					c-0.035,2.697-2.256,4.893-4.95,4.893h-0.073l-0.412-0.005c-1.311-0.018-2.544-0.552-3.475-1.505
					c-0.932-0.953-1.434-2.202-1.416-3.519l0.304-23.32c0.019-1.317-0.489-2.591-1.411-3.534c-0.921-0.945-2.179-1.485-3.498-1.504
					l-13.606-0.177c-0.021,0-0.043,0-0.064,0c-1.296,0-2.542,0.506-3.471,1.411c-0.945,0.921-1.485,2.179-1.502,3.498l-0.302,23.322
					c-0.035,2.699-2.258,4.895-4.956,4.895h-0.063l-0.429-0.006c-2.725-0.036-4.914-2.289-4.879-5.021l0.304-23.322
					c0.017-1.319-0.49-2.591-1.411-3.536c-0.921-0.944-2.179-1.485-3.499-1.502l-9.741-0.125c-1.1-0.015-2.132-0.459-2.907-1.253
					c-0.773-0.791-1.19-1.828-1.176-2.921L38.253,60.639 M33.344,55.601l-0.883,68.166c-0.065,5.011,3.978,9.146,8.992,9.212
					l9.742,0.125l-0.304,23.322c-0.07,5.475,4.339,9.989,9.788,10.061l0.426,0.007c0.043,0.001,0.087,0.001,0.131,0.001
					c5.41,0,9.859-4.377,9.929-9.807l0.302-23.32l13.606,0.177l-0.304,23.32c-0.072,5.475,4.353,9.989,9.799,10.061l0.42,0.005
					c0.043,0.001,0.088,0.001,0.131,0.001c5.414,0,9.854-4.374,9.924-9.803l0.303-23.321l9.742,0.127
					c0.039,0.001,0.079,0.001,0.118,0.001c4.957,0,9.041-4.006,9.104-8.978l0.883-68.166L33.344,55.601L33.344,55.601z"/>
			</g>
			<g>
				<path fill="#FA7D00" d="M79.161,14.603c0.217,0,0.435,0.001,0.653,0.004c6.271,0.08,12.293,1.329,17.899,3.71
					c0.478,0.203,0.972,0.326,1.466,0.374c0.364,0.362,0.787,0.669,1.256,0.906c11.832,5.99,19.373,16.581,20.133,28.034
					l-82.352-1.068c1.053-11.429,8.865-21.82,20.849-27.502c0.475-0.225,0.905-0.521,1.279-0.874c0.49-0.036,0.982-0.145,1.46-0.332
					C67.303,15.698,73.142,14.603,79.161,14.603 M58.215,40.933c5.125,0,9.347-4.165,9.411-9.285
					c0.063-5.181-4.106-9.449-9.294-9.517l-0.125-0.001c-5.124,0-9.345,4.163-9.409,9.277c-0.033,2.521,0.919,4.898,2.679,6.696
					c1.753,1.791,4.103,2.795,6.615,2.827L58.215,40.933 M100.964,41.488c5.118,0,9.337-4.163,9.404-9.285
					c0.063-5.183-4.101-9.452-9.282-9.52l-0.125-0.001c-5.124,0-9.346,4.163-9.411,9.281c-0.063,5.181,4.104,9.453,9.296,9.522
					L100.964,41.488 M50.752,0c-0.305,0-0.612,0.084-0.886,0.259c-0.775,0.478-1,1.51-0.508,2.265l7.578,12.042
					c-14.039,6.656-23.622,19.431-23.812,34.213c-0.012,0.909,0.034,1.805,0.101,2.693l92.212,1.196
					c0.09-0.89,0.152-1.782,0.164-2.691c0.19-14.784-9.061-27.803-22.92-34.818l7.887-11.842c0.509-0.742,0.306-1.778-0.45-2.277
					c-0.28-0.19-0.601-0.282-0.918-0.282c-0.529,0-1.052,0.255-1.364,0.733L99.659,13.74c-5.983-2.542-12.681-4.016-19.78-4.105
					c-0.238-0.003-0.479-0.005-0.718-0.005c-6.838,0-13.304,1.292-19.173,3.597L52.146,0.769C51.835,0.271,51.299,0,50.752,0
					L50.752,0z M58.215,35.958c-0.021,0-0.041,0-0.061,0c-2.453-0.031-4.415-2.027-4.383-4.487c0.03-2.438,2.014-4.367,4.436-4.367
					c0.021,0,0.041,0,0.061,0c2.465,0.032,4.414,2.024,4.384,4.483C62.622,34.026,60.639,35.958,58.215,35.958L58.215,35.958z
					 M100.964,36.514c-0.021,0-0.038,0-0.058,0c-2.457-0.033-4.413-2.029-4.383-4.488c0.031-2.438,2.006-4.367,4.438-4.367
					c0.021,0,0.04,0,0.061,0c2.459,0.031,4.403,2.024,4.373,4.483C105.361,34.582,103.396,36.514,100.964,36.514L100.964,36.514z"/>
			</g>
			<g>
				<path fill="#FA7D00" d="M139.768,60.375h0.059l0.416,0.006c1.313,0.017,2.547,0.55,3.475,1.503
					c0.928,0.951,1.428,2.194,1.41,3.502l-0.557,43.163c-0.036,2.697-2.256,4.892-4.945,4.892h-0.061l-0.422-0.006
					c-1.313-0.017-2.549-0.551-3.479-1.503s-1.432-2.198-1.414-3.512l0.559-43.167C134.846,62.563,137.068,60.375,139.768,60.375
					 M139.768,55.401c-5.408,0-9.86,4.384-9.933,9.786l-0.56,43.169c-0.071,5.469,4.348,9.982,9.803,10.054l0.415,0.006
					c0.043,0.001,0.087,0.001,0.131,0.001c5.409,0,9.847-4.389,9.919-9.8l0.557-43.165c0.071-5.446-4.328-9.974-9.795-10.042
					l-0.408-0.007C139.854,55.402,139.811,55.401,139.768,55.401L139.768,55.401z"/>
			</g>
		</g>
	</g>
</g>
</svg>
