<?xml version="1.0" encoding="utf-8"?>
<!-- Generator: Adobe Illustrator 16.0.0, SVG Export Plug-In . SVG Version: 6.00 Build 0)  -->
<!DOCTYPE svg PUBLIC "-//W3C//DTD SVG 1.1//EN" "http://www.w3.org/Graphics/SVG/1.1/DTD/svg11.dtd">
<svg version="1.1" id="Warstwa_1" xmlns="http://www.w3.org/2000/svg" xmlns:xlink="http://www.w3.org/1999/xlink" x="0px" y="0px"
	 width="140px" height="147px" viewBox="0 0 140 147" enable-background="new 0 0 140 147" xml:space="preserve">
<g id="XMLID_31_">
	<path id="XMLID_33_" fill="none" stroke="#FA7D00" stroke-width="5.5992" stroke-linejoin="round" stroke-miterlimit="10" d="
		M27.205,59.036c-9.708,16.353-3.996,41.437,6.31,56.731c5.14,7.646,10.361,14.522,17.625,14.616c0.138,0.002,0.275,0,0.416-0.006
		c3.418-0.091,5.9-1.108,8.298-2.098c2.69-1.107,5.476-2.25,9.822-2.193c4.137,0.054,6.762,1.229,9.291,2.364
		c2.504,1.121,5.08,2.281,8.909,2.258c8.187-0.043,13.308-7.32,17.828-13.738c4.714-6.701,7.123-13.24,7.94-15.738l0.026-0.101
		c0.161-0.444-0.044-0.934-0.468-1.137c-0.014-0.001-0.061-0.021-0.072-0.028c-1.436-0.605-14.003-6.382-13.939-21.676
		c0.039-12.424,9.732-18.878,11.672-20.044l0.094-0.055c0.209-0.132,0.357-0.343,0.409-0.586c0.055-0.24,0.009-0.496-0.132-0.703
		c-6.508-9.793-16.657-11.389-20.748-11.616c-0.592-0.067-1.205-0.107-1.817-0.115c-4.81-0.063-9.437,1.693-13.16,3.106
		c-2.567,0.974-4.784,1.816-6.301,1.795c-1.711-0.021-3.923-0.931-6.475-1.982c-3.418-1.41-7.293-3.006-11.415-3.059
		c-0.101,0-0.196-0.002-0.288-0.001C41.44,45.051,32.315,50.416,27.205,59.036z"/>
	<path id="XMLID_32_" fill="none" stroke="#FA7D00" stroke-width="5.5992" stroke-linejoin="round" stroke-miterlimit="10" d="
		M90.842,11.979c-5.804,0.163-12.816,3.643-17.043,8.469c-3.59,4.05-7.129,10.835-6.31,17.733c0.051,0.431,0.395,0.771,0.834,0.808
		c0.383,0.041,0.786,0.057,1.184,0.061c5.673,0.074,11.839-2.987,16.091-7.988c4.469-5.279,6.783-12.106,6.188-18.25
		C91.738,12.329,91.32,11.967,90.842,11.979z"/>
</g>
</svg>
