<?xml version="1.0" encoding="utf-8"?>
<!-- Generator: Adobe Illustrator 16.0.0, SVG Export Plug-In . SVG Version: 6.00 Build 0)  -->
<!DOCTYPE svg PUBLIC "-//W3C//DTD SVG 1.1//EN" "http://www.w3.org/Graphics/SVG/1.1/DTD/svg11.dtd">
<svg version="1.1" id="Warstwa_1" xmlns="http://www.w3.org/2000/svg" xmlns:xlink="http://www.w3.org/1999/xlink" x="0px" y="0px"
	 width="306px" height="177.123px" viewBox="-49.833 0 306 177.123" enable-background="new -49.833 0 306 177.123"
	 xml:space="preserve">
<g>
	<g>
		<path fill="#FA7D00" d="M144.411,129.42H61.486c-2.004,0-3.629-1.627-3.629-3.628c0-2.003,1.625-3.626,3.629-3.626h82.925
			c2.004,0,3.629,1.623,3.629,3.626C148.04,127.793,146.418,129.42,144.411,129.42z"/>
		<path fill="#FA7D00" d="M41.751,149.158c-12.885,0-23.368-10.476-23.368-23.366s10.477-23.367,23.368-23.367
			c12.894,0,23.369,10.477,23.369,23.367S54.637,149.158,41.751,149.158z M41.751,109.681c-8.887,0-16.113,7.225-16.113,16.111
			c0,8.886,7.226,16.111,16.113,16.111c8.889,0,16.115-7.227,16.115-16.111C57.866,116.903,50.64,109.681,41.751,109.681z"/>
		<path fill="#FA7D00" d="M164.152,149.158c-12.884,0-23.368-10.476-23.368-23.366s10.479-23.367,23.368-23.367
			c12.892,0,23.366,10.477,23.366,23.367S177.038,149.158,164.152,149.158z M164.152,109.681c-8.888,0-16.112,7.225-16.112,16.111
			c0,8.886,7.226,16.111,16.112,16.111c8.89,0,16.114-7.227,16.114-16.111C180.267,116.903,173.042,109.681,164.152,109.681z"/>
	</g>
	<path fill="#FA7D00" d="M144.44,129.42H61.5c-2.003,0-3.629-1.627-3.629-3.628c0-2.003,1.625-3.626,3.629-3.626h82.946
		c2.006,0,3.633,1.623,3.633,3.626C148.079,127.793,146.452,129.42,144.44,129.42z"/>
	<path fill="#FA7D00" d="M201.313,129.42h-17.439c-2.002,0-3.629-1.627-3.629-3.628c0-2.003,1.627-3.626,3.629-3.626h17.439
		c4.492,0,8.248-3.224,8.938-7.664l3.426-21.887c0.386-2.476-0.238-4.927-1.766-6.913c-1.515-1.976-3.729-3.216-6.201-3.484
		l-52.678-5.709c-0.72-0.08-1.395-0.371-1.945-0.827l-43.944-36.936c-2.712-2.278-6.166-3.533-9.708-3.533H25.066
		c-3.317,0-6.407,1.632-8.286,4.367L-9.54,77.952c-1.314,1.915-1.836,4.224-1.473,6.517l4.686,30.041
		c0.697,4.435,4.456,7.661,8.947,7.661h19.356c2.002,0,3.627,1.627,3.627,3.628c0,2.003-1.625,3.628-3.627,3.628H2.625
		c-8.089,0-14.872-5.804-16.12-13.792l-4.687-30.043c-0.646-4.12,0.297-8.299,2.662-11.746L10.8,35.474
		c3.221-4.701,8.563-7.509,14.265-7.509h72.376c5.254,0,10.352,1.857,14.368,5.239l43.094,36.224l51.575,5.594
		c4.478,0.479,8.444,2.714,11.188,6.283c2.734,3.57,3.864,7.996,3.176,12.451l-3.424,21.89
		C216.178,123.612,209.404,129.42,201.313,129.42z"/>
	<path fill="#FA7D00" d="M121.397,79.33H16.431c-2.001,0-3.626-1.625-3.626-3.626c0-2.003,1.625-3.628,3.626-3.628h104.966
		c2.004,0,3.629,1.625,3.629,3.628C125.026,77.706,123.401,79.33,121.397,79.33z"/>
</g>
</svg>
