<?xml version="1.0" encoding="utf-8"?>
<!-- Generator: Adobe Illustrator 16.0.0, SVG Export Plug-In . SVG Version: 6.00 Build 0)  -->
<!DOCTYPE svg PUBLIC "-//W3C//DTD SVG 1.1//EN" "http://www.w3.org/Graphics/SVG/1.1/DTD/svg11.dtd">
<svg version="1.1" id="Warstwa_1" xmlns="http://www.w3.org/2000/svg" xmlns:xlink="http://www.w3.org/1999/xlink" x="0px" y="0px"
	 width="156.107px" height="157.91px" viewBox="0 0 156.107 157.91" enable-background="new 0 0 156.107 157.91"
	 xml:space="preserve">
<g>
	<g>
		<g>
			<path fill="#FA7D00" stroke="#FA7D00" stroke-width="1.4173" stroke-miterlimit="10" d="M141.835,1H14.272
				C6.455,1,0.099,7.355,0.099,15.174v127.563c0,7.816,6.355,14.175,14.174,14.175h127.563c7.817,0,14.174-6.356,14.174-14.175
				V15.174C156.009,7.355,149.652,1,141.835,1z M148.922,142.736c0,3.906-3.18,7.086-7.087,7.086H14.272
				c-3.907,0-7.087-3.18-7.087-7.086V36.434h141.735L148.922,142.736L148.922,142.736z M148.922,29.348H7.186V15.174
				c0-3.906,3.18-7.088,7.086-7.088h127.563c3.906,0,7.087,3.182,7.087,7.088V29.348L148.922,29.348z"/>
			<circle fill="#FA7D00" stroke="#FA7D00" stroke-width="1.4173" stroke-miterlimit="10" cx="17.815" cy="18.717" r="3.543"/>
			<circle fill="#FA7D00" stroke="#FA7D00" stroke-width="1.4173" stroke-miterlimit="10" cx="31.989" cy="18.717" r="3.543"/>
			<circle fill="#FA7D00" stroke="#FA7D00" stroke-width="1.4173" stroke-miterlimit="10" cx="46.163" cy="18.717" r="3.543"/>
		</g>
	</g>
</g>
<g>
	<g>
		<path fill="#FA7D00" stroke="#FA7D00" stroke-width="1.2911" stroke-miterlimit="10" d="M110.682,127.506l-5.527-60.795
			c-0.277-3.051-2.797-5.351-5.859-5.351H89.72v-3.235c0-6.596-5.37-11.963-11.967-11.963S65.79,51.529,65.79,58.125v3.235h-9.578
			c-3.063,0-5.583,2.3-5.859,5.351l-5.527,60.795c-0.147,1.643,0.404,3.285,1.516,4.502c1.112,1.219,2.696,1.916,4.345,1.916h54.14
			c1.649,0,3.231-0.697,4.346-1.916C110.278,130.791,110.831,129.148,110.682,127.506z M77.753,51.849
			c3.461,0,6.275,2.815,6.275,6.276v3.235H71.476v-3.235l0,0C71.476,54.664,74.292,51.849,77.753,51.849z M104.967,128.172
			c-0.058,0.064-0.121,0.064-0.145,0.064h-54.14c-0.023,0-0.086,0-0.144-0.064s-0.055-0.127-0.05-0.15l5.524-60.794
			c0.01-0.102,0.096-0.178,0.195-0.178h9.578v6.274c0,1.571,1.273,2.845,2.845,2.845c1.572,0,2.843-1.273,2.843-2.845v-6.274h12.553
			v6.274c0,1.571,1.271,2.845,2.844,2.845s2.848-1.273,2.848-2.845v-6.274h9.575l0,0c0.103,0,0.188,0.076,0.196,0.178l5.527,60.794
			C105.02,128.045,105.025,128.107,104.967,128.172z"/>
	</g>
</g>
</svg>
