<?xml version="1.0" encoding="utf-8"?>
<!-- Generator: Adobe Illustrator 16.0.0, SVG Export Plug-In . SVG Version: 6.00 Build 0)  -->
<!DOCTYPE svg PUBLIC "-//W3C//DTD SVG 1.1//EN" "http://www.w3.org/Graphics/SVG/1.1/DTD/svg11.dtd">
<svg version="1.1" id="Warstwa_1" xmlns="http://www.w3.org/2000/svg" xmlns:xlink="http://www.w3.org/1999/xlink" x="0px" y="0px"
	 width="201px" height="177.123px" viewBox="0 0 201 177.123" enable-background="new 0 0 201 177.123" xml:space="preserve">
<g>
	
		<line fill="none" stroke="#FA7D00" stroke-width="6.5348" stroke-linecap="round" stroke-miterlimit="10" x1="11.932" y1="115.265" x2="101.33" y2="115.265"/>
	<path fill="none" stroke="#FA7D00" stroke-width="6.5348" stroke-linecap="round" stroke-miterlimit="10" d="M87.193,136.474
		H18.585c-5.509,0-9.979-4.471-9.979-9.98V18.801c0-5.514,4.471-9.981,9.979-9.981h165.49c5.509,0,9.979,4.467,9.979,9.981v68.604"
		/>
	
		<line fill="none" stroke="#FA7D00" stroke-width="6.5348" stroke-linecap="round" stroke-miterlimit="10" x1="80.957" y1="136.474" x2="76.797" y2="164.247"/>
	
		<line fill="none" stroke="#FA7D00" stroke-width="6.5348" stroke-linecap="round" stroke-miterlimit="10" x1="68.483" y1="165.992" x2="87.193" y2="165.992"/>
	
		<line fill="none" stroke="#FA7D00" stroke-width="6.5348" stroke-linecap="round" stroke-miterlimit="10" x1="190.729" y1="115.265" x2="101.33" y2="115.265"/>
	<path fill="none" stroke="#FA7D00" stroke-width="6.5348" stroke-linecap="round" stroke-miterlimit="10" d="M101.33,136.474
		h82.745c5.509,0,9.979-4.471,9.979-9.98V18.801c0-5.514-4.471-9.981-9.979-9.981H18.585c-5.509,0-9.979,4.467-9.979,9.981v68.604"
		/>
	
		<line fill="none" stroke="#FA7D00" stroke-width="6.5348" stroke-linecap="round" stroke-miterlimit="10" x1="121.704" y1="136.474" x2="125.51" y2="164.247"/>
	
		<line fill="none" stroke="#FA7D00" stroke-width="6.5348" stroke-linecap="round" stroke-miterlimit="10" x1="134.178" y1="165.992" x2="115.467" y2="165.992"/>
	
		<line fill="none" stroke="#FA7D00" stroke-width="6.5348" stroke-linecap="round" stroke-miterlimit="10" x1="101.33" y1="136.474" x2="18.585" y2="136.474"/>
</g>
</svg>
