<?xml version="1.0" encoding="utf-8"?>
<!-- Generator: Adobe Illustrator 16.0.0, SVG Export Plug-In . SVG Version: 6.00 Build 0)  -->
<!DOCTYPE svg PUBLIC "-//W3C//DTD SVG 1.1//EN" "http://www.w3.org/Graphics/SVG/1.1/DTD/svg11.dtd">
<svg version="1.1" id="Warstwa_1" xmlns="http://www.w3.org/2000/svg" xmlns:xlink="http://www.w3.org/1999/xlink" x="0px" y="0px"
	 width="156.107px" height="157.91px" viewBox="0 0 156.107 157.91" enable-background="new 0 0 156.107 157.91"
	 xml:space="preserve">
<g>
	<g>
		<g>
			<path fill="#FA7D00" stroke="#FA7D00" stroke-width="1.4173" stroke-miterlimit="10" d="M141.835,2H14.272
				C6.455,2,0.099,8.356,0.099,16.174v127.563c0,7.816,6.355,14.175,14.174,14.175h127.563c7.817,0,14.174-6.356,14.174-14.175
				V16.174C156.009,8.356,149.652,2,141.835,2z M148.922,143.736c0,3.906-3.18,7.086-7.087,7.086H14.272
				c-3.907,0-7.087-3.18-7.087-7.086V87.334c0.389,0.047,0.793,0.031,1.177,0.096c0.197,0.035,0.392,0.049,0.585,0.049
				c1.702,0,3.204-1.229,3.491-2.963c0.32-1.932-0.983-3.757-2.913-4.076c-0.771-0.129-1.562-0.114-2.34-0.192V37.434h141.735
				L148.922,143.736L148.922,143.736z M148.922,30.348H7.186V16.174c0-3.906,3.18-7.087,7.086-7.087h127.563
				c3.906,0,7.087,3.181,7.087,7.087V30.348L148.922,30.348z"/>
			<circle fill="#FA7D00" stroke="#FA7D00" stroke-width="1.4173" stroke-miterlimit="10" cx="17.815" cy="19.717" r="3.543"/>
			<circle fill="#FA7D00" stroke="#FA7D00" stroke-width="1.4173" stroke-miterlimit="10" cx="31.989" cy="19.717" r="3.543"/>
			<circle fill="#FA7D00" stroke="#FA7D00" stroke-width="1.4173" stroke-miterlimit="10" cx="46.163" cy="19.717" r="3.543"/>
			<path fill="#FA7D00" stroke="#FA7D00" stroke-width="1.4173" stroke-miterlimit="10" d="M51.284,86.447l19.94,13.293
				l3.319,23.238c0.215,1.483,1.336,2.674,2.808,2.971c0.233,0.045,0.471,0.07,0.702,0.07c1.229,0,2.391-0.642,3.037-1.722
				l8.72-14.53l18.168,12.112c0.589,0.392,1.272,0.597,1.966,0.597c0.354,0,0.706-0.054,1.052-0.16
				c1.019-0.318,1.841-1.076,2.239-2.068l28.348-70.868c0.529-1.322,0.211-2.838-0.803-3.838c-1.015-1-2.537-1.29-3.852-0.747
				L51.887,80.229c-1.205,0.502-2.039,1.627-2.163,2.928C49.596,84.457,50.197,85.723,51.284,86.447z M85.681,102.879
				c-0.007,0.01-0.007,0.021-0.013,0.031s-0.018,0.016-0.022,0.025l-5.494,9.159L78.336,99.38l16.339-10.894L85.681,102.879z
				 M131.87,54.58l-23.594,58.982L93.51,103.72l15.896-25.429c0.885-1.416,0.66-3.26-0.537-4.424
				c-1.188-1.158-3.045-1.32-4.433-0.404L74.51,93.412l-13.784-9.191L131.87,54.58z"/>
			<path fill="#FA7D00" stroke="#FA7D00" stroke-width="1.4173" stroke-miterlimit="10" d="M50.479,142.893
				c2.03,0.562,4.131,0.844,6.246,0.844c2.147,0,4.278-0.291,6.339-0.868c1.886-0.525,2.985-2.479,2.456-4.367
				c-0.529-1.881-2.487-2.979-4.366-2.457c-2.853,0.793-5.935,0.808-8.793,0.019c-1.89-0.521-3.837,0.588-4.356,2.475
				C47.486,140.424,48.592,142.373,50.479,142.893z"/>
			<path fill="#FA7D00" stroke="#FA7D00" stroke-width="1.4173" stroke-miterlimit="10" d="M36.443,121.088
				c-1.91,0.426-3.115,2.318-2.693,4.229c0.929,4.166,2.978,8.009,5.925,11.109c0.695,0.729,1.635,1.1,2.567,1.1
				c0.879,0,1.758-0.325,2.443-0.977c1.418-1.35,1.475-3.592,0.124-5.01c-2.063-2.166-3.495-4.848-4.139-7.758
				C40.25,121.871,38.35,120.701,36.443,121.088z"/>
			<path fill="#FA7D00" stroke="#FA7D00" stroke-width="1.4173" stroke-miterlimit="10" d="M17.432,90.586
				c2.823,1.561,5.35,3.57,7.502,5.975c0.703,0.783,1.668,1.183,2.641,1.183c0.844,0,1.688-0.3,2.363-0.904
				c1.457-1.309,1.581-3.547,0.276-5.004c-2.686-3-5.835-5.506-9.356-7.449c-1.72-0.948-3.872-0.321-4.813,1.388
				C15.096,87.484,15.719,89.641,17.432,90.586z"/>
			<path fill="#FA7D00" stroke="#FA7D00" stroke-width="1.4173" stroke-miterlimit="10" d="M30.041,104.676
				c0.978,2.354,1.63,4.838,1.948,7.391l0.273,2.191c0.226,1.793,1.751,3.104,3.513,3.104c0.145,0,0.293-0.01,0.441-0.026
				c1.941-0.242,3.319-2.015,3.076-3.955l-0.272-2.19c-0.396-3.181-1.214-6.283-2.434-9.226c-0.748-1.812-2.827-2.653-4.63-1.918
				C30.152,100.793,29.293,102.869,30.041,104.676z"/>
			<path fill="#FA7D00" stroke="#FA7D00" stroke-width="1.4173" stroke-miterlimit="10" d="M76.477,126.615
				c-1.635-1.09-3.831-0.648-4.914,0.982l-1.156,1.729c-0.498,0.746-1.049,1.444-1.65,2.092c-1.332,1.435-1.249,3.676,0.185,5.008
				c0.682,0.634,1.547,0.947,2.412,0.947c0.946,0,1.896-0.379,2.595-1.131c0.858-0.925,1.651-1.92,2.36-2.99l1.151-1.728
				C78.545,129.902,78.105,127.701,76.477,126.615z"/>
		</g>
	</g>
</g>
</svg>
