<?xml version="1.0" encoding="utf-8"?>
<!-- Generator: Adobe Illustrator 16.0.0, SVG Export Plug-In . SVG Version: 6.00 Build 0)  -->
<!DOCTYPE svg PUBLIC "-//W3C//DTD SVG 1.1//EN" "http://www.w3.org/Graphics/SVG/1.1/DTD/svg11.dtd">
<svg version="1.1" id="Warstwa_1" xmlns="http://www.w3.org/2000/svg" xmlns:xlink="http://www.w3.org/1999/xlink" x="0px" y="0px"
	 width="156.107px" height="157.91px" viewBox="0 0 156.107 157.91" enable-background="new 0 0 156.107 157.91"
	 xml:space="preserve">
<path fill="#FA7D00" stroke="#FA7D00" stroke-width="1.3306" stroke-miterlimit="10" d="M66.998,102.936l-8.875-4.531V97.46
	c3.973-2.17,6.765-5.739,8.323-10.646c2.364-1.254,3.875-3.695,3.875-6.433v-2.441c0-2.259-1.051-4.353-2.808-5.73
	c-1.522-9.222-7.957-13.896-19.148-13.896c-0.53,0-1.047,0.02-1.551,0.059c-2.108,0.172-5.195-0.009-7.865-1.807
	c-0.998-0.673-1.752-1.325-2.232-1.934c-0.819-1.045-2.197-1.412-3.42-0.91c-1.225,0.502-1.944,1.728-1.792,3.042
	c0.104,0.913,0.258,1.975,0.489,3.138c0.47,2.378,0.47,2.378-0.189,3.801c-0.25,0.539-0.559,1.196-0.918,2.082
	c-0.809,1.979-1.381,4.144-1.71,6.458c-1.732,1.377-2.767,3.46-2.767,5.697v2.441c0,2.737,1.511,5.179,3.875,6.433
	c1.56,4.908,4.352,8.479,8.323,10.646v0.917l-9.194,4.532c-3.356,1.83-5.441,5.344-5.441,9.169v3.232c0,1.957,0,6.543,24.395,6.543
	c24.396,0,24.396-4.586,24.396-6.543v-3.037C72.759,108.295,70.551,104.721,66.998,102.936z M67.88,114.758
	c-1.522,0.928-7.713,2.215-19.517,2.215c-11.803,0-17.994-1.287-19.517-2.215v-2.681c0-2.037,1.109-3.911,2.81-4.835l9.411-4.639
	c1.468-0.718,2.415-2.236,2.415-3.873v-4.398l-1.476-0.634c-3.699-1.595-6.105-4.638-7.354-9.306l-0.349-1.302l-1.284-0.399
	c-1.021-0.318-1.734-1.269-1.734-2.312v-2.441c0-0.882,0.504-1.702,1.32-2.136l1.144-0.61l0.134-1.289
	c0.241-2.289,0.753-4.399,1.519-6.271c0.323-0.792,0.601-1.384,0.824-1.87c0.827-1.777,1.127-2.694,0.92-4.575
	c2.868,1.64,6.314,2.338,10.056,2.052c0.378-0.031,0.766-0.046,1.163-0.046c9.135,0,13.594,3.308,14.465,10.729l0.151,1.274
	l1.134,0.6c0.815,0.435,1.325,1.256,1.325,2.144v2.441c0,1.043-0.715,1.993-1.736,2.312L62.42,83.09l-0.348,1.301
	c-1.25,4.666-3.655,7.709-7.356,9.305l-1.473,0.638v4.418c0,1.632,0.902,3.103,2.353,3.842l9.209,4.707
	c1.897,0.945,3.075,2.854,3.075,4.976V114.758z"/>
<g>
	<g>
		<g>
			<path fill="#FA7D00" stroke="#FA7D00" stroke-width="1.4173" stroke-miterlimit="10" d="M141.934,1.409H14.371
				c-7.816,0-14.174,6.355-14.174,14.174v127.562c0,7.816,6.356,14.174,14.174,14.174h127.563c7.816,0,14.174-6.356,14.174-14.174
				V15.583C156.107,7.764,149.751,1.409,141.934,1.409z M149.021,143.145c0,3.906-3.181,7.086-7.087,7.086H14.371
				c-3.907,0-7.087-3.18-7.087-7.086V36.842H149.02L149.021,143.145L149.021,143.145z M149.021,29.756H7.284V15.583
				c0-3.906,3.18-7.088,7.086-7.088h127.563c3.905,0,7.087,3.182,7.087,7.088L149.021,29.756L149.021,29.756z"/>
			<circle fill="#FA7D00" stroke="#FA7D00" stroke-width="1.4173" stroke-miterlimit="10" cx="17.914" cy="19.125" r="3.543"/>
			<circle fill="#FA7D00" stroke="#FA7D00" stroke-width="1.4173" stroke-miterlimit="10" cx="32.088" cy="19.125" r="3.543"/>
			<circle fill="#FA7D00" stroke="#FA7D00" stroke-width="1.4173" stroke-miterlimit="10" cx="46.262" cy="19.125" r="3.543"/>
			<path fill="#FA7D00" stroke="#FA7D00" stroke-width="1.4173" stroke-miterlimit="10" d="M25.001,136.057h106.304
				c1.958,0,3.544-1.584,3.544-3.543s-1.586-3.543-3.544-3.543H25.001c-1.959,0-3.543,1.586-3.543,3.543
				C21.458,134.473,23.042,136.057,25.001,136.057z"/>
			<path fill="#FA7D00" stroke="#FA7D00" stroke-width="1.4173" stroke-miterlimit="10" d="M90.041,72.276h41.264
				c1.958,0,3.544-1.584,3.544-3.543s-1.586-3.543-3.544-3.543H90.041c-1.959,0-3.543,1.584-3.543,3.543
				S88.082,72.276,90.041,72.276z"/>
			<path fill="#FA7D00" stroke="#FA7D00" stroke-width="1.4173" stroke-miterlimit="10" d="M90.041,93.537h41.264
				c1.958,0,3.544-1.586,3.544-3.545c0-1.957-1.586-3.543-3.544-3.543H90.041c-1.959,0-3.543,1.586-3.543,3.545
				C86.498,91.951,88.082,93.537,90.041,93.537z"/>
			<path fill="#FA7D00" stroke="#FA7D00" stroke-width="1.4173" stroke-miterlimit="10" d="M90.041,114.797h41.264
				c1.958,0,3.544-1.584,3.544-3.543s-1.586-3.543-3.544-3.543H90.041c-1.959,0-3.543,1.584-3.543,3.543
				S88.082,114.797,90.041,114.797z"/>
		</g>
	</g>
</g>
</svg>
