<?xml version="1.0" encoding="utf-8"?>
<!-- Generator: Adobe Illustrator 16.0.0, SVG Export Plug-In . SVG Version: 6.00 Build 0)  -->
<!DOCTYPE svg PUBLIC "-//W3C//DTD SVG 1.1//EN" "http://www.w3.org/Graphics/SVG/1.1/DTD/svg11.dtd">
<svg version="1.1" id="Warstwa_1" xmlns="http://www.w3.org/2000/svg" xmlns:xlink="http://www.w3.org/1999/xlink" x="0px" y="0px"
	 width="201px" height="177.123px" viewBox="0 0 201 177.123" enable-background="new 0 0 201 177.123" xml:space="preserve">
<g>
	<path fill="#FA7D00" d="M132,49.744V22.74c0-1.611-1.307-2.917-2.918-2.917H77.168c-1.612,0-2.917,1.306-2.917,2.917v27.003
		C67.976,51.889,63.45,57.84,63.45,64.83v47.461c0,6.992,4.525,12.942,10.801,15.088v27.004c0,1.611,1.305,2.918,2.917,2.918h51.914
		c1.611,0,2.918-1.307,2.918-2.918v-27.004c6.273-2.146,10.799-8.096,10.799-15.088V64.83C142.799,57.84,138.273,51.889,132,49.744z
		 M126.164,25.657v23.23H80.086v-23.23H126.164z M80.086,151.465v-23.229h46.078v23.229H80.086z M136.965,112.291
		c0,5.574-4.535,10.108-10.109,10.108h-47.46c-5.574,0-10.109-4.534-10.109-10.108V64.83c0-5.574,4.535-10.109,10.109-10.109h47.46
		c5.574,0,10.109,4.535,10.109,10.109V112.291z"/>
	<path fill="#FA7D00" d="M125.695,58.514H80.554c-4.122,0-7.476,3.354-7.476,7.477v45.141c0,4.123,3.354,7.477,7.476,7.477h45.141
		c4.121,0,7.478-3.354,7.478-7.477V65.99C133.172,61.867,129.816,58.514,125.695,58.514z M127.336,111.131
		c0,0.906-0.736,1.644-1.641,1.644H80.554c-0.905,0-1.642-0.736-1.642-1.644V65.99c0-0.904,0.737-1.642,1.642-1.642h45.141
		c0.904,0,1.642,0.737,1.642,1.642L127.336,111.131L127.336,111.131z"/>
	<path fill="#FA7D00" d="M94.873,78.15c-1.139-1.139-2.986-1.139-4.125,0L82.4,86.498c-1.141,1.141-1.141,2.985,0,4.127l8.348,8.347
		c0.568,0.569,1.316,0.854,2.062,0.854s1.494-0.285,2.063-0.854c1.139-1.14,1.139-2.984,0-4.125l-6.285-6.286l6.285-6.283
		C96.011,81.137,96.011,79.289,94.873,78.15L94.873,78.15z"/>
	<path fill="#FA7D00" d="M115.502,78.15c-1.139-1.139-2.986-1.139-4.127,0c-1.137,1.139-1.139,2.986,0,4.127l6.285,6.283
		l-6.285,6.285c-1.137,1.139-1.137,2.986,0,4.125c0.57,0.57,1.318,0.855,2.064,0.855s1.492-0.285,2.063-0.855l8.348-8.346
		c1.139-1.141,1.139-2.986,0-4.127L115.502,78.15z"/>
	<path fill="#FA7D00" d="M106.25,70.674c-1.582-0.312-3.115,0.719-3.424,2.3l-5.903,30.048c-0.311,1.582,0.719,3.115,2.301,3.426
		c0.189,0.039,0.379,0.057,0.564,0.057c1.366,0,2.586-0.965,2.86-2.357L108.55,74.1C108.861,72.518,107.832,70.984,106.25,70.674z"
		/>
</g>
</svg>
