<?xml version="1.0" encoding="utf-8"?>
<!-- Generator: Adobe Illustrator 16.0.0, SVG Export Plug-In . SVG Version: 6.00 Build 0)  -->
<!DOCTYPE svg PUBLIC "-//W3C//DTD SVG 1.1//EN" "http://www.w3.org/Graphics/SVG/1.1/DTD/svg11.dtd">
<svg version="1.1" id="Warstwa_1" xmlns="http://www.w3.org/2000/svg" xmlns:xlink="http://www.w3.org/1999/xlink" x="0px" y="0px"
	 width="201px" height="172.457px" viewBox="0 0 201 172.457" enable-background="new 0 0 201 172.457" xml:space="preserve">
<g>
	<g>
		<g>
			<path fill="#FA7D00" stroke="#FA7D00" stroke-width="1.4173" stroke-miterlimit="10" d="M164.281,7.918H36.719
				c-7.818,0-14.174,6.355-14.174,14.174v127.564c0,7.815,6.355,14.174,14.174,14.174h127.563c7.815,0,14.174-6.357,14.174-14.174
				V22.092C178.455,14.273,172.098,7.918,164.281,7.918z M171.367,149.654c0,3.906-3.18,7.086-7.086,7.086H36.719
				c-3.908,0-7.088-3.18-7.088-7.086V43.352h141.736V149.654L171.367,149.654z M171.367,36.266H29.631V22.092
				c0-3.906,3.18-7.088,7.086-7.088h127.564c3.906,0,7.086,3.182,7.086,7.088V36.266L171.367,36.266z"/>
			<circle fill="#FA7D00" stroke="#FA7D00" stroke-width="1.4173" stroke-miterlimit="10" cx="40.262" cy="25.635" r="3.543"/>
			<circle fill="#FA7D00" stroke="#FA7D00" stroke-width="1.4173" stroke-miterlimit="10" cx="54.436" cy="25.635" r="3.543"/>
			<circle fill="#FA7D00" stroke="#FA7D00" stroke-width="1.4173" stroke-miterlimit="10" cx="68.609" cy="25.635" r="3.543"/>
			<path fill="#FA7D00" stroke="#FA7D00" stroke-width="1.4173" stroke-miterlimit="10" d="M47.348,142.566H153.65
				c1.959,0,3.545-1.584,3.545-3.543s-1.586-3.543-3.545-3.543H47.348c-1.959,0-3.543,1.586-3.543,3.543
				C43.805,140.982,45.389,142.566,47.348,142.566z"/>
			<path fill="#FA7D00" stroke="#FA7D00" stroke-width="1.4173" stroke-miterlimit="10" d="M48.383,78.785H153.65
				c1.959,0,3.545-1.584,3.545-3.543s-1.586-3.543-3.545-3.543H48.383c-1.959,0-3.543,1.584-3.543,3.543
				S46.424,78.785,48.383,78.785z"/>
			<path fill="#FA7D00" stroke="#FA7D00" stroke-width="1.4173" stroke-miterlimit="10" d="M48.383,100.046H153.65
				c1.959,0,3.545-1.586,3.545-3.545c0-1.957-1.586-3.543-3.545-3.543H48.383c-1.959,0-3.543,1.586-3.543,3.545
				C44.84,98.46,46.424,100.046,48.383,100.046z"/>
			<path fill="#FA7D00" stroke="#FA7D00" stroke-width="1.4173" stroke-miterlimit="10" d="M48.383,121.307H153.65
				c1.959,0,3.545-1.584,3.545-3.543s-1.586-3.543-3.545-3.543H48.383c-1.959,0-3.543,1.584-3.543,3.543
				S46.424,121.307,48.383,121.307z"/>
		</g>
	</g>
</g>
</svg>
