<?xml version="1.0" encoding="utf-8"?>
<!-- Generator: Adobe Illustrator 16.0.0, SVG Export Plug-In . SVG Version: 6.00 Build 0)  -->
<!DOCTYPE svg PUBLIC "-//W3C//DTD SVG 1.1//EN" "http://www.w3.org/Graphics/SVG/1.1/DTD/svg11.dtd">
<svg version="1.1" id="Warstwa_1" xmlns="http://www.w3.org/2000/svg" xmlns:xlink="http://www.w3.org/1999/xlink" x="0px" y="0px"
	 width="155.91px" height="156.441px" viewBox="0 0 155.91 156.441" enable-background="new 0 0 155.91 156.441"
	 xml:space="preserve">
<g>
	<g>
		<g>
			<path fill="#FA7D00" d="M15.413,86.124l43.261,0.561l-0.518,39.973l-43.185-6.524L15.413,86.124 M9.935,80.502l-0.577,44.396
				l54.266,8.198l0.672-51.892L9.935,80.502L9.935,80.502z"/>
		</g>
		<g>
			<path fill="#FA7D00" d="M59.431,28.281l-0.526,40.603l-43.26-0.561l0.447-34.638L59.431,28.281 M65.064,21.985l-54.46,6.791
				l-0.582,45.024l54.36,0.705L65.064,21.985L65.064,21.985z"/>
		</g>
		<g>
			<path fill="#FA7D00" d="M75.748,86.906l61.186,0.792l-0.658,50.729l-61.072-9.226L75.748,86.906 M70.27,81.284l-0.68,52.683
				l72.154,10.899l0.813-62.646L70.27,81.284L70.27,81.284z"/>
		</g>
		<g>
			<path fill="#FA7D00" d="M137.83,18.536l-0.665,51.363L75.98,69.105l0.555-42.933L137.83,18.536 M143.463,12.24l-72.416,9.024
				l-0.689,53.319l72.287,0.938L143.463,12.24L143.463,12.24z"/>
		</g>
	</g>
</g>
</svg>
